<svg width="32" height="32" viewBox="0 0 32 32" fill="none" xmlns="http://www.w3.org/2000/svg">
<path d="M3.42874 8.64311C2.96098 7.94146 3.82816 7.12112 4.50278 7.62708L15.2 15.65C15.6 15.95 15.6 16.55 15.2 16.85L4.50278 24.8729C3.82816 25.3789 2.96097 24.5585 3.42874 23.8569L8.22265 16.666C8.3906 16.4141 8.3906 16.0859 8.22265 15.834L3.42874 8.64311Z" fill="#047857" style="fill:#047857;fill:color(display-p3 0.0157 0.4706 0.3412);fill-opacity:1;"/>
<path d="M28.5713 23.8569C29.039 24.5585 28.1718 25.3789 27.4972 24.8729L16.8 16.85C16.4 16.55 16.4 15.95 16.8 15.65L27.4972 7.62708C28.1718 7.12112 29.039 7.94146 28.5713 8.64311L23.7774 15.834C23.6094 16.0859 23.6094 16.4141 23.7774 16.666L28.5713 23.8569Z" fill="#047857" style="fill:#047857;fill:color(display-p3 0.0157 0.4706 0.3412);fill-opacity:1;"/>
</svg>
