<svg width="120" height="120" viewBox="0 0 120 120" fill="none" xmlns="http://www.w3.org/2000/svg">
<rect width="120" height="120" fill="#092951" style="fill:#092951;fill:color(display-p3 0.0353 0.1608 0.3176);fill-opacity:1;"/>
<g clip-path="url(#clip0_2258_22558)">
<path d="M93.2077 53.0665C75.3379 52.6951 67.3175 46.1498 67.3175 44.4364C67.3175 42.723 75.3519 36.2549 93.2077 35.8239C93.4292 35.8198 93.6476 35.7717 93.8503 35.6823C94.0529 35.593 94.2358 35.4641 94.3881 35.3033C94.5404 35.1425 94.6592 34.953 94.7375 34.7458C94.8157 34.5386 94.852 34.3178 94.844 34.0965V24.5764C94.8395 24.3463 94.7896 24.1194 94.6973 23.9086C94.6051 23.6978 94.4722 23.5072 94.3062 23.3478C94.1403 23.1883 93.9445 23.0631 93.7302 22.9794C93.5159 22.8956 93.2871 22.8549 93.057 22.8595C86.5118 23.1573 63.9748 25.0915 60.103 38.5569C60.0832 38.6205 60.0437 38.6761 59.9901 38.7156C59.9365 38.755 59.8717 38.7763 59.8051 38.7763C59.7386 38.7763 59.6738 38.755 59.6202 38.7156C59.5666 38.6761 59.527 38.6205 59.5073 38.5569C55.639 25.095 33.0249 23.1608 26.5532 22.8595C26.3215 22.848 26.0898 22.8841 25.8724 22.9654C25.6551 23.0467 25.4566 23.1716 25.2893 23.3323C25.1219 23.4931 24.9892 23.6864 24.8993 23.9004C24.8093 24.1143 24.7641 24.3443 24.7663 24.5764V34.1736C24.7797 34.6103 24.9544 35.0266 25.2565 35.3423C25.5586 35.658 25.9668 35.8508 26.4026 35.8835C44.2724 36.2549 52.2928 42.7265 52.2928 44.4364C52.2928 46.1463 44.2584 53.0665 26.4026 53.0665C24.7663 53.0665 24.7663 54.7028 24.7663 54.7028V64.4507C24.7663 66.0134 26.4026 66.087 26.4026 66.087C44.2724 66.4584 52.2928 73.0036 52.2928 74.717C52.2928 76.4304 44.2584 82.8986 26.4026 83.3436C26.1823 83.3477 25.9651 83.3954 25.7634 83.4839C25.5616 83.5724 25.3794 83.7 25.2273 83.8593C25.0752 84.0186 24.9561 84.2065 24.877 84.412C24.7978 84.6176 24.7602 84.8368 24.7663 85.057V94.6542C24.7773 95.1176 24.9716 95.5578 25.3065 95.8783C25.6414 96.1988 26.0898 96.3735 26.5532 96.3641C33.0985 96.0662 55.6355 94.1321 59.5073 80.6666C59.527 80.6031 59.5666 80.5475 59.6202 80.508C59.6738 80.4685 59.7386 80.4472 59.8051 80.4472C59.8717 80.4472 59.9365 80.4685 59.9901 80.508C60.0437 80.5475 60.0832 80.6031 60.103 80.6666C63.9572 94.1321 86.5853 96.0838 93.057 96.3641C93.2882 96.3755 93.5193 96.3397 93.7362 96.2588C93.9531 96.1779 94.1512 96.0537 94.3184 95.8936C94.4857 95.7336 94.6186 95.5412 94.7089 95.328C94.7993 95.1149 94.8453 94.8856 94.844 94.6542V84.9834C94.8314 84.5461 94.6571 84.1289 94.3549 83.8125C94.0527 83.496 93.644 83.3028 93.2077 83.27C75.3379 82.8986 67.3175 76.4269 67.3175 74.717C67.3175 73.0072 75.3519 66.4584 93.2077 66.087C93.426 66.1003 93.6447 66.0671 93.8493 65.9895C94.0538 65.912 94.2396 65.7919 94.3943 65.6373C94.549 65.4826 94.6691 65.2968 94.7466 65.0922C94.8241 64.8877 94.8573 64.669 94.844 64.4507V54.7028C94.844 53.0665 93.2077 53.0665 93.2077 53.0665ZM65.979 61.8473C64.3602 67.7093 59.9523 68.319 57.2753 67.3589C54.5248 66.3918 51.6236 63.2663 54.1499 57.548C55.4148 54.6468 59.5809 50.4071 63.0042 51.672C66.7253 52.9929 66.8725 58.7954 65.979 61.8473V61.8473Z" fill="white" style="fill:white;fill-opacity:1;"/>
</g>
<defs>
<clipPath id="clip0_2258_22558">
<rect width="70.0778" height="73.5081" fill="white" style="fill:white;fill-opacity:1;" transform="translate(24.7656 22.8574)"/>
</clipPath>
</defs>
</svg>
